<svg version="1.1" id="Layer_1" xmlns="http://www.w3.org/2000/svg" xmlns:xlink="http://www.w3.org/1999/xlink" x="0px" y="0px"
	 width="100%" viewBox="0 0 1781 734" enable-background="new 0 0 1781 734" xml:space="preserve">
<path fill="#FFFFFF" opacity="1.000000" stroke="none" 
	d="
M1391.000000,735.000000 
	C927.333313,735.000000 464.166656,735.000000 1.000000,735.000000 
	C1.000000,490.333344 1.000000,245.666672 1.000000,1.000000 
	C594.666687,1.000000 1188.333374,1.000000 1782.000000,1.000000 
	C1782.000000,245.666672 1782.000000,490.333344 1782.000000,735.000000 
	C1651.833374,735.000000 1521.666626,735.000000 1391.000000,735.000000 
M1704.000000,608.064331 
	C1704.000000,505.709564 1704.000000,403.354767 1704.749390,300.851532 
	C1705.499634,297.916260 1706.862915,294.988434 1706.898926,292.044434 
	C1707.106323,275.063141 1707.000000,258.078003 1707.000000,241.094193 
	C1707.000000,207.792587 1707.078369,174.490509 1706.869507,141.190231 
	C1706.850220,138.120941 1705.000000,135.063156 1704.000000,131.143127 
	C1704.000000,129.428757 1704.000000,127.714378 1704.793335,125.819046 
	C1705.195557,124.317780 1706.028931,122.786644 1705.927246,121.320282 
	C1705.413086,113.899544 1705.376221,106.335770 1703.777222,99.131699 
	C1702.237183,92.192924 1698.841064,85.878593 1692.420044,81.585129 
	C1684.200806,76.089294 1675.074951,74.052658 1665.511230,74.051582 
	C1149.236206,73.993332 632.961121,74.000000 116.686028,74.000000 
	C116.019432,74.000000 115.352264,73.981705 114.686340,74.002846 
	C105.018425,74.309654 97.723274,79.234467 91.885757,86.373993 
	C84.566231,95.326065 84.138092,106.435158 84.116608,117.147446 
	C83.918785,215.802567 83.877129,314.458496 84.042068,413.113739 
	C84.157059,481.896423 84.635284,550.678650 85.028984,619.460571 
	C85.099266,631.740112 94.975723,644.413147 106.848763,646.660217 
	C116.080635,648.407410 125.543610,649.863770 134.904343,649.866516 
	C645.013367,650.017090 1155.122437,650.003296 1665.231567,649.957886 
	C1671.020386,649.957336 1676.832397,649.543579 1682.592651,648.934204 
	C1692.110840,647.927246 1700.511963,644.073669 1703.388428,634.476257 
	C1705.532471,627.323425 1705.290405,619.438904 1705.893677,611.862915 
	C1705.965210,610.964600 1704.664673,609.956970 1704.000000,608.064331 
z"/>
<path fill="#F8F9FD" opacity="1.000000" stroke="none" 
	d="
M1704.000000,126.000000 
	C1704.000000,127.714378 1704.000000,129.428757 1704.000000,132.040222 
	C1704.000000,188.958206 1704.000000,244.979111 1704.000000,301.000000 
	C1704.000000,403.354767 1704.000000,505.709564 1704.000000,608.989502 
	C1703.648071,615.036377 1703.544434,620.189880 1702.895874,625.273804 
	C1701.197632,638.587830 1697.415771,643.066956 1685.596680,645.569824 
	C1681.413696,646.455566 1677.062256,646.943237 1672.787720,646.943726 
	C1163.342163,647.003357 653.896545,647.012390 144.451004,646.915588 
	C133.705887,646.913513 122.927711,645.978882 112.224663,644.891602 
	C99.649040,643.614136 90.676567,635.590942 88.141090,623.120361 
	C86.732773,616.193665 86.090546,608.993896 86.085587,601.916443 
	C85.974640,443.600128 85.969261,285.283630 86.086380,126.967316 
	C86.092728,118.388481 87.171692,109.793098 88.052513,101.236420 
	C89.298439,89.133125 102.782982,76.745941 116.871651,76.753952 
	C631.649841,77.046631 1146.428223,76.996971 1661.206543,77.042900 
	C1666.495239,77.043373 1671.821045,77.405403 1677.065552,78.089371 
	C1690.374878,79.825142 1699.945801,88.998665 1701.900146,102.279480 
	C1703.053955,110.119537 1703.329590,118.088821 1704.000000,126.000000 
M658.779297,328.628815 
	C656.170105,332.348267 653.560913,336.067688 650.671692,340.186218 
	C649.218994,338.539459 648.397278,337.750488 647.740723,336.842133 
	C640.233459,326.454529 632.812134,316.003845 625.198730,305.694977 
	C624.022827,304.102722 622.022949,302.089600 620.359009,302.047424 
	C604.720764,301.651001 589.071045,301.473114 573.428711,301.632996 
	C569.315247,301.675018 569.015930,303.398682 571.422424,306.718811 
	C586.858154,328.015350 602.190125,349.387238 617.656555,370.661377 
	C619.350403,372.991302 619.235474,374.701141 617.529724,376.851746 
	C605.734863,391.722321 594.010132,406.648407 582.255249,421.550690 
	C577.572083,427.487732 572.869751,433.409607 567.635559,440.021271 
	C569.997192,440.615997 571.532410,441.325867 573.073975,441.339935 
	C585.894287,441.457001 598.720764,441.631927 611.532166,441.291962 
	C613.696228,441.234497 616.467651,439.265442 617.812378,437.367523 
	C624.067200,428.539581 629.907532,419.418427 635.923950,410.420807 
	C637.281860,408.390015 638.750671,406.433441 640.812256,403.538788 
	C647.164307,412.131104 653.050171,420.092773 659.027039,428.735779 
	C661.246094,431.851379 663.183411,435.233673 665.787231,437.985168 
	C667.415894,439.706146 670.020691,441.450104 672.235474,441.513641 
	C685.058289,441.881592 697.896118,441.848145 710.726929,441.729736 
	C714.212036,441.697571 717.690063,440.902100 721.783997,440.378601 
	C720.850891,438.569702 720.567871,437.796814 720.104065,437.154449 
	C705.296753,416.646881 690.561584,396.086029 675.571045,375.713104 
	C672.726746,371.847595 672.574524,369.234863 675.680786,365.326569 
	C689.552979,347.872559 703.056885,330.126068 716.717651,312.503723 
	C719.102112,309.427856 721.600708,306.440521 724.743103,302.549866 
	C721.541260,301.972168 719.348694,301.254272 717.149536,301.233551 
	C705.317688,301.122009 693.483154,301.276794 681.652161,301.127167 
	C678.239868,301.084015 676.143799,302.347748 674.337646,305.195770 
	C669.438354,312.921082 664.270752,320.476257 658.779297,328.628815 
M323.056549,335.990967 
	C333.142303,338.684601 338.123383,345.387573 338.179199,357.190857 
	C338.302826,383.347626 338.293091,409.505798 338.147400,435.662354 
	C338.123444,439.954559 339.458649,441.673767 343.863556,441.575073 
	C353.356506,441.362396 362.859314,441.615143 372.354248,441.453400 
	C376.410522,441.384308 380.457245,440.755005 384.017700,440.425629 
	C384.017700,434.873291 384.023438,430.246002 384.016724,425.618683 
	C383.977814,398.792206 384.183014,371.961548 383.727966,345.142090 
	C383.608704,338.114105 382.468292,330.733154 380.006317,324.187775 
	C373.744507,307.540344 359.521515,301.542023 343.208801,299.138031 
	C324.512054,296.382721 306.420044,299.966461 288.321075,304.136169 
	C284.133759,305.100861 279.141998,305.553009 275.228088,304.197540 
	C260.128815,298.968414 244.666519,297.772583 228.915070,298.198120 
	C209.347305,298.726837 190.959595,304.965363 172.307648,309.899475 
	C164.530807,311.956757 163.094421,313.932129 163.086777,321.798523 
	C163.067841,341.293762 163.138229,360.789215 163.063751,380.284180 
	C162.990570,399.438599 162.859085,418.593658 162.565018,437.745575 
	C162.511566,441.225220 164.519424,441.000061 166.729111,441.026489 
	C178.386307,441.165802 190.043320,441.363892 201.700928,441.409546 
	C208.764923,441.437225 208.766754,441.329651 208.766953,434.308838 
	C208.767792,404.649414 208.894669,374.988922 208.646820,345.331573 
	C208.604004,340.208191 210.319504,337.004517 215.133224,336.608215 
	C222.503693,336.001465 230.048050,335.427521 237.304626,336.413971 
	C240.814804,336.891144 244.900620,340.319885 246.813904,343.546112 
	C249.225769,347.613068 250.741364,352.823456 250.809601,357.566895 
	C251.188232,383.888214 251.010300,410.217590 251.022781,436.544189 
	C251.023453,437.976990 251.022873,439.409790 251.022873,441.106079 
	C266.539062,441.106079 281.459900,441.106079 296.968384,441.106079 
	C296.968384,438.922852 296.966888,437.128662 296.968597,435.334473 
	C296.997192,405.513275 297.029358,375.692047 297.052704,345.870850 
	C297.057892,339.229950 298.360809,336.961273 304.905396,336.081390 
	C310.588287,335.317352 316.449554,335.880219 323.056549,335.990967 
M961.998108,310.455811 
	C951.614014,323.879913 941.229858,337.304047 930.845764,350.728180 
	C930.394470,350.577240 929.943115,350.426331 929.491760,350.275391 
	C929.491760,346.815338 929.487122,343.355255 929.492432,339.895203 
	C929.535400,311.739838 929.507263,283.583984 929.707947,255.429733 
	C929.736145,251.469162 928.485229,250.152924 924.609070,250.197311 
	C912.450745,250.336594 900.288818,250.296478 888.130005,250.163147 
	C884.634644,250.124832 883.092590,251.015472 883.170593,254.955414 
	C883.434387,268.277557 883.335632,281.607300 883.337585,294.934143 
	C883.344421,340.749115 883.363281,386.564117 883.308594,432.379028 
	C883.297546,441.594360 883.193542,441.709991 892.471497,441.743927 
	C902.966675,441.782349 913.464905,441.511322 923.956665,441.684784 
	C927.871399,441.749481 929.139709,440.540771 929.075378,436.559418 
	C928.854797,422.901794 928.944336,409.238068 929.039429,395.577515 
	C929.056946,393.066010 929.652039,390.558533 929.980530,388.049164 
	C932.749878,390.355316 934.266968,392.836639 935.942444,395.206055 
	C945.746338,409.070709 955.746216,422.800995 965.297791,436.836670 
	C967.535034,440.124115 969.751404,441.780151 973.663025,441.746674 
	C988.321960,441.621185 1002.982788,441.705475 1017.641357,441.559540 
	C1020.342957,441.532623 1023.037476,440.801025 1026.641602,440.258148 
	C1024.291016,437.418213 1022.530823,435.491547 1020.992126,433.401733 
	C1005.202087,411.955688 989.685730,390.301697 973.529236,369.136047 
	C969.072571,363.297638 968.367493,362.535095 974.466370,355.861816 
	C978.061646,351.927948 981.769287,348.096954 985.409180,344.203644 
	C996.895386,331.917938 1008.384827,319.635284 1019.836975,307.317902 
	C1021.002258,306.064697 1021.923584,304.584808 1022.958130,303.210083 
	C1021.205017,302.565948 1019.459656,301.388916 1017.697571,301.363312 
	C1005.371765,301.184021 993.022522,301.662933 980.721558,301.076141 
	C972.663696,300.691681 966.309875,302.341156 961.998108,310.455811 
M506.128326,443.669800 
	C514.488098,440.533295 523.098145,437.924103 531.135681,434.108765 
	C538.841736,430.450806 543.483887,423.541870 543.610779,414.954651 
	C543.970459,390.629211 544.256653,366.282227 543.596008,341.970245 
	C543.226990,328.391083 537.530090,316.493683 525.335815,309.345276 
	C518.818726,305.524841 511.575073,302.182922 504.237122,300.662201 
	C479.578918,295.552124 455.229767,298.422913 431.234131,305.451782 
	C425.949768,306.999725 423.669067,310.138763 423.808350,315.667572 
	C424.039124,324.828339 423.851898,333.999176 423.895477,343.165527 
	C423.902802,344.708588 424.185089,346.250336 424.392181,348.307648 
	C425.962097,347.551331 426.866241,347.220215 427.661591,346.717102 
	C443.124084,336.938080 459.960693,332.843475 478.140808,334.896240 
	C489.749054,336.207001 497.744537,344.531708 498.867615,355.848511 
	C499.497345,362.194489 498.366730,363.166565 492.431152,361.206635 
	C480.348114,357.216888 468.154205,354.206604 455.227753,355.127106 
	C439.546234,356.243744 426.161407,362.185364 417.302673,375.240295 
	C407.002960,390.418762 411.053497,418.392944 424.549744,430.810486 
	C435.613342,440.989777 449.332031,445.319458 463.900238,445.636780 
	C477.665192,445.936584 491.468933,444.455780 506.128326,443.669800 
M1397.540039,438.894379 
	C1412.651245,444.353821 1428.191284,444.738953 1443.888184,442.598267 
	C1453.956421,441.225189 1463.331909,438.043549 1471.007568,430.968750 
	C1475.478638,426.847626 1480.002319,422.783569 1485.339111,417.933289 
	C1485.605835,420.425995 1485.907715,421.963013 1485.909302,423.500305 
	C1485.913940,428.162506 1485.888428,432.828278 1485.700562,437.485626 
	C1485.603027,439.906067 1486.218384,441.329895 1488.928101,441.328644 
	C1494.751953,441.325989 1500.576294,441.383545 1506.399414,441.477936 
	C1509.929443,441.535095 1511.142090,440.173615 1511.128296,436.391510 
	C1510.954590,388.583801 1510.975098,340.775360 1510.950684,292.967133 
	C1510.942993,277.885437 1510.949463,277.885437 1495.478149,278.119995 
	C1485.935669,278.264679 1485.935669,278.264679 1485.935791,287.741425 
	C1485.935791,292.230316 1485.935791,296.719208 1485.935791,301.208099 
	C1485.415405,301.305756 1484.895020,301.403412 1484.374634,301.501038 
	C1482.833008,299.842499 1481.328613,298.147308 1479.741699,296.533478 
	C1476.947632,293.692352 1474.324341,290.627045 1471.240601,288.137482 
	C1459.702515,278.822601 1445.929565,275.843689 1431.589478,275.038971 
	C1402.284302,273.394470 1378.922607,284.398376 1362.403442,308.818970 
	C1351.286621,325.253143 1347.245117,343.718719 1348.096313,363.423187 
	C1349.593384,398.078705 1364.912231,423.708649 1397.540039,438.894379 
M848.535950,344.553864 
	C848.976868,342.889526 849.762695,341.232544 849.798218,339.559601 
	C849.943359,332.732330 849.410339,325.861542 849.993591,319.081360 
	C850.510193,313.075470 847.846741,309.689209 842.968750,307.266327 
	C841.477783,306.525787 840.023376,305.655670 838.456177,305.132629 
	C815.834412,297.582428 793.286987,295.757660 770.813049,305.841187 
	C743.519714,318.087067 734.855103,352.813568 753.085266,376.556610 
	C760.038452,385.612518 770.028320,388.220093 780.278809,390.852356 
	C787.485901,392.703064 794.525879,395.223450 801.598755,397.570709 
	C805.479431,398.858582 807.730042,401.353149 807.110474,405.826599 
	C806.470581,410.447144 803.318848,412.214844 799.299377,413.001862 
	C797.678040,413.319366 795.987488,413.304382 794.325867,413.391663 
	C780.194275,414.133972 767.463928,409.631836 755.245972,403.066406 
	C752.039917,401.343628 748.612793,400.032135 744.383789,398.124146 
	C744.383789,408.928375 744.383301,418.234314 744.383911,427.540222 
	C744.384399,435.773895 744.694702,435.961700 752.552429,438.874237 
	C773.961426,446.809631 795.673889,447.718842 817.865845,442.624084 
	C842.254456,437.025116 855.395935,422.406982 854.965027,398.930176 
	C854.591309,378.570404 846.530151,366.353577 828.065430,361.075928 
	C821.183105,359.108826 814.281555,357.196136 807.460083,355.033752 
	C803.672363,353.833038 799.833923,352.527130 796.376099,350.619995 
	C792.284546,348.363373 791.156738,344.453400 792.036377,339.859528 
	C792.885925,335.423126 795.624146,332.963074 799.913086,332.924469 
	C807.155823,332.859314 814.742615,332.019409 821.564636,333.835236 
	C830.611023,336.243195 839.061523,340.890167 848.535950,344.553864 
M1252.315674,441.690857 
	C1259.531250,441.684021 1259.532471,441.684021 1259.532593,434.400665 
	C1259.533081,398.934265 1259.532837,363.467834 1259.532715,328.001434 
	C1259.532593,303.691132 1259.447876,279.380219 1259.616211,255.071075 
	C1259.643799,251.074326 1258.398682,249.955536 1254.494385,250.029266 
	C1242.510010,250.255600 1230.516968,250.223953 1218.531006,250.043839 
	C1214.985840,249.990555 1213.989014,251.218521 1213.993652,254.658997 
	C1214.075195,315.434662 1214.085205,376.210510 1213.975708,436.986084 
	C1213.968750,440.827057 1215.284302,441.816010 1218.888916,441.755737 
	C1229.708984,441.574738 1240.533936,441.690552 1252.315674,441.690857 
M1138.770874,250.059067 
	C1134.794800,249.541351 1133.223145,250.936279 1133.232300,255.275360 
	C1133.359863,315.770477 1133.345825,376.266022 1133.252441,436.761292 
	C1133.246704,440.450531 1134.345337,441.725281 1138.088135,441.666962 
	C1150.084351,441.479950 1162.086670,441.494049 1174.083496,441.660431 
	C1177.673950,441.710236 1179.050903,440.724060 1179.044434,436.885468 
	C1178.942993,376.223602 1178.947632,315.561432 1179.036621,254.899506 
	C1179.041992,251.240585 1177.987183,249.920197 1174.213501,249.986160 
	C1162.717773,250.187057 1151.216431,250.058762 1138.770874,250.059067 
M1098.112671,425.494263 
	C1098.112427,387.020966 1098.035400,348.547363 1098.207275,310.074829 
	C1098.229126,305.189545 1096.599487,303.668945 1091.870483,303.772034 
	C1080.716797,304.015137 1069.554321,303.838074 1058.395386,303.854370 
	C1051.692627,303.864166 1051.506836,304.060181 1051.505005,310.988037 
	C1051.498047,337.136536 1051.501953,363.285065 1051.502075,389.433563 
	C1051.502075,404.922821 1051.530640,420.412140 1051.480713,435.901245 
	C1051.469849,439.308411 1052.085205,441.776581 1056.329468,441.742645 
	C1068.653442,441.644165 1080.978882,441.678192 1093.303345,441.728119 
	C1096.596436,441.741486 1098.266357,440.454742 1098.138794,436.982910 
	C1098.010376,433.490082 1098.111938,429.988800 1098.112671,425.494263 
M1578.076660,352.500000 
	C1578.076538,329.352692 1578.013184,306.205017 1578.142822,283.058441 
	C1578.162720,279.499695 1577.313965,277.836517 1573.445190,278.024139 
	C1568.294678,278.273926 1563.123291,278.126312 1557.961304,278.090576 
	C1554.251953,278.064880 1552.827271,279.553131 1552.837158,283.522705 
	C1552.963745,334.479828 1552.962891,385.437439 1552.836792,436.394562 
	C1552.827393,440.200684 1554.408081,441.538788 1557.713379,441.610107 
	C1562.540161,441.714294 1567.390381,441.403961 1572.192993,441.767059 
	C1576.748657,442.111481 1578.213989,440.627136 1578.178467,435.930359 
	C1577.970825,408.454865 1578.076660,380.977051 1578.076660,352.500000 
M1063.520752,283.902191 
	C1073.666870,283.901703 1083.813965,283.818390 1093.958374,283.947479 
	C1097.324341,283.990326 1098.801514,282.863953 1098.739380,279.349182 
	C1098.595215,271.201599 1098.580688,263.047394 1098.747070,254.900650 
	C1098.823853,251.134293 1097.203247,250.001984 1093.650879,250.037094 
	C1081.011108,250.162048 1068.368408,250.165741 1055.728760,250.036636 
	C1052.303711,250.001648 1050.937988,251.163544 1051.050415,254.664642 
	C1051.242554,260.646301 1051.102539,266.638641 1051.102539,272.626495 
	C1051.102417,283.902374 1051.102539,283.902374 1063.520752,283.902191 
M1307.711426,399.212677 
	C1298.308838,401.894409 1293.576050,407.700714 1293.185913,417.032654 
	C1292.745483,427.567719 1296.838013,434.964722 1305.396729,437.580566 
	C1309.104126,438.713654 1313.265381,438.671570 1317.215942,438.637604 
	C1326.310669,438.559479 1332.399536,433.939362 1334.676758,425.826874 
	C1337.507812,415.741058 1334.505981,406.028625 1326.946167,401.473389 
	C1325.138550,400.384277 1322.997681,399.449646 1320.936401,399.264252 
	C1316.823242,398.894287 1312.658936,399.092682 1307.711426,399.212677 
M1570.346680,218.382248 
	C1566.030273,218.382965 1561.706665,218.538010 1557.399658,218.337738 
	C1553.655396,218.163620 1551.890137,219.382050 1552.002197,223.414810 
	C1552.205200,230.713882 1552.159424,238.024567 1552.017700,245.326523 
	C1551.949951,248.811172 1553.423828,250.053635 1556.789307,249.968719 
	C1562.430176,249.826416 1568.084351,249.763306 1573.719604,249.992935 
	C1577.386475,250.142349 1578.832397,248.805283 1578.742676,245.131668 
	C1578.584473,238.660904 1578.701782,232.183472 1578.699585,225.708832 
	C1578.697144,218.392609 1578.695068,218.392609 1570.346680,218.382248 
z"/>
<path fill="#FFFFFF" opacity="1.000000" stroke="none" 
	d="
M1704.396729,125.909515 
	C1703.329590,118.088821 1703.053955,110.119537 1701.900146,102.279480 
	C1699.945801,88.998665 1690.374878,79.825142 1677.065552,78.089371 
	C1671.821045,77.405403 1666.495239,77.043373 1661.206543,77.042900 
	C1146.428223,76.996971 631.649841,77.046631 116.871651,76.753952 
	C102.782982,76.745941 89.298439,89.133125 88.052513,101.236420 
	C87.171692,109.793098 86.092728,118.388481 86.086380,126.967316 
	C85.969261,285.283630 85.974640,443.600128 86.085587,601.916443 
	C86.090546,608.993896 86.732773,616.193665 88.141090,623.120361 
	C90.676567,635.590942 99.649040,643.614136 112.224663,644.891602 
	C122.927711,645.978882 133.705887,646.913513 144.451004,646.915588 
	C653.896545,647.012390 1163.342163,647.003357 1672.787720,646.943726 
	C1677.062256,646.943237 1681.413696,646.455566 1685.596680,645.569824 
	C1697.415771,643.066956 1701.197632,638.587830 1702.895874,625.273804 
	C1703.544434,620.189880 1703.648071,615.036377 1704.000000,609.457275 
	C1704.664673,609.956970 1705.965210,610.964600 1705.893677,611.862915 
	C1705.290405,619.438904 1705.532471,627.323425 1703.388428,634.476257 
	C1700.511963,644.073669 1692.110840,647.927246 1682.592651,648.934204 
	C1676.832397,649.543579 1671.020386,649.957336 1665.231567,649.957886 
	C1155.122437,650.003296 645.013367,650.017090 134.904343,649.866516 
	C125.543610,649.863770 116.080635,648.407410 106.848763,646.660217 
	C94.975723,644.413147 85.099266,631.740112 85.028984,619.460571 
	C84.635284,550.678650 84.157059,481.896423 84.042068,413.113739 
	C83.877129,314.458496 83.918785,215.802567 84.116608,117.147446 
	C84.138092,106.435158 84.566231,95.326065 91.885757,86.373993 
	C97.723274,79.234467 105.018425,74.309654 114.686340,74.002846 
	C115.352264,73.981705 116.019432,74.000000 116.686028,74.000000 
	C632.961121,74.000000 1149.236206,73.993332 1665.511230,74.051582 
	C1675.074951,74.052658 1684.200806,76.089294 1692.420044,81.585129 
	C1698.841064,85.878593 1702.237183,92.192924 1703.777222,99.131699 
	C1705.376221,106.335770 1705.413086,113.899544 1705.927246,121.320282 
	C1706.028931,122.786644 1705.195557,124.317780 1704.396729,125.909515 
z"/>
<path fill="#FFFFFF" opacity="1.000000" stroke="none" 
	d="
M1704.374756,300.925781 
	C1704.000000,244.979111 1704.000000,188.958206 1704.000000,132.468658 
	C1705.000000,135.063156 1706.850220,138.120941 1706.869507,141.190231 
	C1707.078369,174.490509 1707.000000,207.792587 1707.000000,241.094193 
	C1707.000000,258.078003 1707.106323,275.063141 1706.898926,292.044434 
	C1706.862915,294.988434 1705.499634,297.916260 1704.374756,300.925781 
z"/>
<path fill="#EB08FE" opacity="1.000000" stroke="none" 
	d="
M322.644287,335.923828 
	C316.449554,335.880219 310.588287,335.317352 304.905396,336.081390 
	C298.360809,336.961273 297.057892,339.229950 297.052704,345.870850 
	C297.029358,375.692047 296.997192,405.513275 296.968597,435.334473 
	C296.966888,437.128662 296.968384,438.922852 296.968384,441.106079 
	C281.459900,441.106079 266.539062,441.106079 251.022873,441.106079 
	C251.022873,439.409790 251.023453,437.976990 251.022781,436.544189 
	C251.010300,410.217590 251.188232,383.888214 250.809601,357.566895 
	C250.741364,352.823456 249.225769,347.613068 246.813904,343.546112 
	C244.900620,340.319885 240.814804,336.891144 237.304626,336.413971 
	C230.048050,335.427521 222.503693,336.001465 215.133224,336.608215 
	C210.319504,337.004517 208.604004,340.208191 208.646820,345.331573 
	C208.894669,374.988922 208.767792,404.649414 208.766953,434.308838 
	C208.766754,441.329651 208.764923,441.437225 201.700928,441.409546 
	C190.043320,441.363892 178.386307,441.165802 166.729111,441.026489 
	C164.519424,441.000061 162.511566,441.225220 162.565018,437.745575 
	C162.859085,418.593658 162.990570,399.438599 163.063751,380.284180 
	C163.138229,360.789215 163.067841,341.293762 163.086777,321.798523 
	C163.094421,313.932129 164.530807,311.956757 172.307648,309.899475 
	C190.959595,304.965363 209.347305,298.726837 228.915070,298.198120 
	C244.666519,297.772583 260.128815,298.968414 275.228088,304.197540 
	C279.141998,305.553009 284.133759,305.100861 288.321075,304.136169 
	C306.420044,299.966461 324.512054,296.382721 343.208801,299.138031 
	C359.521515,301.542023 373.744507,307.540344 380.006317,324.187775 
	C382.468292,330.733154 383.608704,338.114105 383.727966,345.142090 
	C384.183014,371.961548 383.977814,398.792206 384.016724,425.618683 
	C384.023438,430.246002 384.017700,434.873291 384.017700,440.425629 
	C380.457245,440.755005 376.410522,441.384308 372.354248,441.453400 
	C362.859314,441.615143 353.356506,441.362396 343.863556,441.575073 
	C339.458649,441.673767 338.123444,439.954559 338.147400,435.662354 
	C338.293091,409.505798 338.302826,383.347626 338.179199,357.190857 
	C338.123383,345.387573 333.142303,338.684601 322.644287,335.923828 
z"/>
<path fill="#40C798" opacity="1.000000" stroke="none" 
	d="
M962.197815,310.162903 
	C966.309875,302.341156 972.663696,300.691681 980.721558,301.076141 
	C993.022522,301.662933 1005.371765,301.184021 1017.697571,301.363312 
	C1019.459656,301.388916 1021.205017,302.565948 1022.958130,303.210083 
	C1021.923584,304.584808 1021.002258,306.064697 1019.836975,307.317902 
	C1008.384827,319.635284 996.895386,331.917938 985.409180,344.203644 
	C981.769287,348.096954 978.061646,351.927948 974.466370,355.861816 
	C968.367493,362.535095 969.072571,363.297638 973.529236,369.136047 
	C989.685730,390.301697 1005.202087,411.955688 1020.992126,433.401733 
	C1022.530823,435.491547 1024.291016,437.418213 1026.641602,440.258148 
	C1023.037476,440.801025 1020.342957,441.532623 1017.641357,441.559540 
	C1002.982788,441.705475 988.321960,441.621185 973.663025,441.746674 
	C969.751404,441.780151 967.535034,440.124115 965.297791,436.836670 
	C955.746216,422.800995 945.746338,409.070709 935.942444,395.206055 
	C934.266968,392.836639 932.749878,390.355316 929.980530,388.049164 
	C929.652039,390.558533 929.056946,393.066010 929.039429,395.577515 
	C928.944336,409.238068 928.854797,422.901794 929.075378,436.559418 
	C929.139709,440.540771 927.871399,441.749481 923.956665,441.684784 
	C913.464905,441.511322 902.966675,441.782349 892.471497,441.743927 
	C883.193542,441.709991 883.297546,441.594360 883.308594,432.379028 
	C883.363281,386.564117 883.344421,340.749115 883.337585,294.934143 
	C883.335632,281.607300 883.434387,268.277557 883.170593,254.955414 
	C883.092590,251.015472 884.634644,250.124832 888.130005,250.163147 
	C900.288818,250.296478 912.450745,250.336594 924.609070,250.197311 
	C928.485229,250.152924 929.736145,251.469162 929.707947,255.429733 
	C929.507263,283.583984 929.535400,311.739838 929.492432,339.895203 
	C929.487122,343.355255 929.491760,346.815338 929.491760,350.275391 
	C929.943115,350.426331 930.394470,350.577240 930.845764,350.728180 
	C941.229858,337.304047 951.614014,323.879913 962.197815,310.162903 
z"/>
<path fill="#B448E5" opacity="1.000000" stroke="none" 
	d="
M505.691956,443.713989 
	C491.468933,444.455780 477.665192,445.936584 463.900238,445.636780 
	C449.332031,445.319458 435.613342,440.989777 424.549744,430.810486 
	C411.053497,418.392944 407.002960,390.418762 417.302673,375.240295 
	C426.161407,362.185364 439.546234,356.243744 455.227753,355.127106 
	C468.154205,354.206604 480.348114,357.216888 492.431152,361.206635 
	C498.366730,363.166565 499.497345,362.194489 498.867615,355.848511 
	C497.744537,344.531708 489.749054,336.207001 478.140808,334.896240 
	C459.960693,332.843475 443.124084,336.938080 427.661591,346.717102 
	C426.866241,347.220215 425.962097,347.551331 424.392181,348.307648 
	C424.185089,346.250336 423.902802,344.708588 423.895477,343.165527 
	C423.851898,333.999176 424.039124,324.828339 423.808350,315.667572 
	C423.669067,310.138763 425.949768,306.999725 431.234131,305.451782 
	C455.229767,298.422913 479.578918,295.552124 504.237122,300.662201 
	C511.575073,302.182922 518.818726,305.524841 525.335815,309.345276 
	C537.530090,316.493683 543.226990,328.391083 543.596008,341.970245 
	C544.256653,366.282227 543.970459,390.629211 543.610779,414.954651 
	C543.483887,423.541870 538.841736,430.450806 531.135681,434.108765 
	C523.098145,437.924103 514.488098,440.533295 505.691956,443.713989 
M457.677124,402.470978 
	C460.072632,410.622192 466.511536,413.435577 474.005249,413.905487 
	C479.760803,414.266388 485.587616,413.348938 491.387970,413.179718 
	C496.335358,413.035400 498.641602,410.369446 498.815125,405.719391 
	C499.019379,400.247101 499.168579,394.757111 498.909210,389.295319 
	C498.851868,388.087097 497.030243,386.008545 495.939850,385.954010 
	C487.057251,385.509979 478.030334,384.463654 469.296509,385.569153 
	C461.422577,386.565826 455.033600,392.164917 457.677124,402.470978 
z"/>
<path fill="#15E242" opacity="1.000000" stroke="none" 
	d="
M1397.179810,438.760620 
	C1364.912231,423.708649 1349.593384,398.078705 1348.096313,363.423187 
	C1347.245117,343.718719 1351.286621,325.253143 1362.403442,308.818970 
	C1378.922607,284.398376 1402.284302,273.394470 1431.589478,275.038971 
	C1445.929565,275.843689 1459.702515,278.822601 1471.240601,288.137482 
	C1474.324341,290.627045 1476.947632,293.692352 1479.741699,296.533478 
	C1481.328613,298.147308 1482.833008,299.842499 1484.374634,301.501038 
	C1484.895020,301.403412 1485.415405,301.305756 1485.935791,301.208099 
	C1485.935791,296.719208 1485.935791,292.230316 1485.935791,287.741425 
	C1485.935669,278.264679 1485.935669,278.264679 1495.478149,278.119995 
	C1510.949463,277.885437 1510.942993,277.885437 1510.950684,292.967133 
	C1510.975098,340.775360 1510.954590,388.583801 1511.128296,436.391510 
	C1511.142090,440.173615 1509.929443,441.535095 1506.399414,441.477936 
	C1500.576294,441.383545 1494.751953,441.325989 1488.928101,441.328644 
	C1486.218384,441.329895 1485.603027,439.906067 1485.700562,437.485626 
	C1485.888428,432.828278 1485.913940,428.162506 1485.909302,423.500305 
	C1485.907715,421.963013 1485.605835,420.425995 1485.339111,417.933289 
	C1480.002319,422.783569 1475.478638,426.847626 1471.007568,430.968750 
	C1463.331909,438.043549 1453.956421,441.225189 1443.888184,442.598267 
	C1428.191284,444.738953 1412.651245,444.353821 1397.179810,438.760620 
M1467.702148,310.783386 
	C1450.130493,295.213257 1429.873047,293.129364 1408.954468,301.269043 
	C1388.393921,309.269379 1376.954468,325.669006 1373.872925,347.420471 
	C1370.688965,369.894928 1374.300171,390.338593 1391.990845,406.804626 
	C1412.727295,426.105530 1448.541016,426.220001 1468.885376,406.702057 
	C1480.792725,395.278381 1485.508179,381.011841 1486.743652,365.107086 
	C1488.346558,344.470062 1483.082642,326.226593 1467.702148,310.783386 
z"/>
<path fill="#4CBFAF" opacity="1.000000" stroke="none" 
	d="
M848.151978,344.564453 
	C839.061523,340.890167 830.611023,336.243195 821.564636,333.835236 
	C814.742615,332.019409 807.155823,332.859314 799.913086,332.924469 
	C795.624146,332.963074 792.885925,335.423126 792.036377,339.859528 
	C791.156738,344.453400 792.284546,348.363373 796.376099,350.619995 
	C799.833923,352.527130 803.672363,353.833038 807.460083,355.033752 
	C814.281555,357.196136 821.183105,359.108826 828.065430,361.075928 
	C846.530151,366.353577 854.591309,378.570404 854.965027,398.930176 
	C855.395935,422.406982 842.254456,437.025116 817.865845,442.624084 
	C795.673889,447.718842 773.961426,446.809631 752.552429,438.874237 
	C744.694702,435.961700 744.384399,435.773895 744.383911,427.540222 
	C744.383301,418.234314 744.383789,408.928375 744.383789,398.124146 
	C748.612793,400.032135 752.039917,401.343628 755.245972,403.066406 
	C767.463928,409.631836 780.194275,414.133972 794.325867,413.391663 
	C795.987488,413.304382 797.678040,413.319366 799.299377,413.001862 
	C803.318848,412.214844 806.470581,410.447144 807.110474,405.826599 
	C807.730042,401.353149 805.479431,398.858582 801.598755,397.570709 
	C794.525879,395.223450 787.485901,392.703064 780.278809,390.852356 
	C770.028320,388.220093 760.038452,385.612518 753.085266,376.556610 
	C734.855103,352.813568 743.519714,318.087067 770.813049,305.841187 
	C793.286987,295.757660 815.834412,297.582428 838.456177,305.132629 
	C840.023376,305.655670 841.477783,306.525787 842.968750,307.266327 
	C847.846741,309.689209 850.510193,313.075470 849.993591,319.081360 
	C849.410339,325.861542 849.943359,332.732330 849.798218,339.559601 
	C849.762695,341.232544 848.976868,342.889526 848.151978,344.564453 
z"/>
<path fill="#13E241" opacity="1.000000" stroke="none" 
	d="
M1251.836426,441.690735 
	C1240.533936,441.690552 1229.708984,441.574738 1218.888916,441.755737 
	C1215.284302,441.816010 1213.968750,440.827057 1213.975708,436.986084 
	C1214.085205,376.210510 1214.075195,315.434662 1213.993652,254.658997 
	C1213.989014,251.218521 1214.985840,249.990555 1218.531006,250.043839 
	C1230.516968,250.223953 1242.510010,250.255600 1254.494385,250.029266 
	C1258.398682,249.955536 1259.643799,251.074326 1259.616211,255.071075 
	C1259.447876,279.380219 1259.532593,303.691132 1259.532715,328.001434 
	C1259.532837,363.467834 1259.533081,398.934265 1259.532593,434.400665 
	C1259.532471,441.684021 1259.531250,441.684021 1251.836426,441.690735 
z"/>
<path fill="#25D962" opacity="1.000000" stroke="none" 
	d="
M1139.244141,250.058838 
	C1151.216431,250.058762 1162.717773,250.187057 1174.213501,249.986160 
	C1177.987183,249.920197 1179.041992,251.240585 1179.036621,254.899506 
	C1178.947632,315.561432 1178.942993,376.223602 1179.044434,436.885468 
	C1179.050903,440.724060 1177.673950,441.710236 1174.083496,441.660431 
	C1162.086670,441.494049 1150.084351,441.479950 1138.088135,441.666962 
	C1134.345337,441.725281 1133.246704,440.450531 1133.252441,436.761292 
	C1133.345825,376.266022 1133.359863,315.770477 1133.232300,255.275360 
	C1133.223145,250.936279 1134.794800,249.541351 1139.244141,250.058838 
z"/>
<path fill="#877DD0" opacity="1.000000" stroke="none" 
	d="
M658.936035,428.054443 
	C653.050171,420.092773 647.164307,412.131104 640.812256,403.538788 
	C638.750671,406.433441 637.281860,408.390015 635.923950,410.420807 
	C629.907532,419.418427 624.067200,428.539581 617.812378,437.367523 
	C616.467651,439.265442 613.696228,441.234497 611.532166,441.291962 
	C598.720764,441.631927 585.894287,441.457001 573.073975,441.339935 
	C571.532410,441.325867 569.997192,440.615997 567.635559,440.021271 
	C572.869751,433.409607 577.572083,427.487732 582.255249,421.550690 
	C594.010132,406.648407 605.734863,391.722321 617.529724,376.851746 
	C619.235474,374.701141 619.350403,372.991302 617.656555,370.661377 
	C602.190125,349.387238 586.858154,328.015350 571.422424,306.718811 
	C569.015930,303.398682 569.315247,301.675018 573.428711,301.632996 
	C589.071045,301.473114 604.720764,301.651001 620.359009,302.047424 
	C622.022949,302.089600 624.022827,304.102722 625.198730,305.694977 
	C632.812134,316.003845 640.233459,326.454529 647.740723,336.842133 
	C648.397278,337.750488 649.218994,338.539459 650.671692,340.186218 
	C653.560913,336.067688 656.170105,332.348267 659.243591,328.672272 
	C660.467102,344.908722 661.599792,361.095490 661.870483,377.296631 
	C662.097351,390.874084 661.433716,404.472870 660.901672,418.051910 
	C660.770264,421.406616 659.618713,424.721344 658.936035,428.054443 
z"/>
<path fill="#23D861" opacity="1.000000" stroke="none" 
	d="
M1098.112793,425.992737 
	C1098.111938,429.988800 1098.010376,433.490082 1098.138794,436.982910 
	C1098.266357,440.454742 1096.596436,441.741486 1093.303345,441.728119 
	C1080.978882,441.678192 1068.653442,441.644165 1056.329468,441.742645 
	C1052.085205,441.776581 1051.469849,439.308411 1051.480713,435.901245 
	C1051.530640,420.412140 1051.502075,404.922821 1051.502075,389.433563 
	C1051.501953,363.285065 1051.498047,337.136536 1051.505005,310.988037 
	C1051.506836,304.060181 1051.692627,303.864166 1058.395386,303.854370 
	C1069.554321,303.838074 1080.716797,304.015137 1091.870483,303.772034 
	C1096.599487,303.668945 1098.229126,305.189545 1098.207275,310.074829 
	C1098.035400,348.547363 1098.112427,387.020966 1098.112793,425.992737 
z"/>
<path fill="#7198C6" opacity="1.000000" stroke="none" 
	d="
M658.981567,428.395111 
	C659.618713,424.721344 660.770264,421.406616 660.901672,418.051910 
	C661.433716,404.472870 662.097351,390.874084 661.870483,377.296631 
	C661.599792,361.095490 660.467102,344.908722 659.458740,328.407318 
	C664.270752,320.476257 669.438354,312.921082 674.337646,305.195770 
	C676.143799,302.347748 678.239868,301.084015 681.652161,301.127167 
	C693.483154,301.276794 705.317688,301.122009 717.149536,301.233551 
	C719.348694,301.254272 721.541260,301.972168 724.743103,302.549866 
	C721.600708,306.440521 719.102112,309.427856 716.717651,312.503723 
	C703.056885,330.126068 689.552979,347.872559 675.680786,365.326569 
	C672.574524,369.234863 672.726746,371.847595 675.571045,375.713104 
	C690.561584,396.086029 705.296753,416.646881 720.104065,437.154449 
	C720.567871,437.796814 720.850891,438.569702 721.783997,440.378601 
	C717.690063,440.902100 714.212036,441.697571 710.726929,441.729736 
	C697.896118,441.848145 685.058289,441.881592 672.235474,441.513641 
	C670.020691,441.450104 667.415894,439.706146 665.787231,437.985168 
	C663.183411,435.233673 661.246094,431.851379 658.981567,428.395111 
z"/>
<path fill="#13E241" opacity="1.000000" stroke="none" 
	d="
M1578.076660,353.000000 
	C1578.076660,380.977051 1577.970825,408.454865 1578.178467,435.930359 
	C1578.213989,440.627136 1576.748657,442.111481 1572.192993,441.767059 
	C1567.390381,441.403961 1562.540161,441.714294 1557.713379,441.610107 
	C1554.408081,441.538788 1552.827393,440.200684 1552.836792,436.394562 
	C1552.962891,385.437439 1552.963745,334.479828 1552.837158,283.522705 
	C1552.827271,279.553131 1554.251953,278.064880 1557.961304,278.090576 
	C1563.123291,278.126312 1568.294678,278.273926 1573.445190,278.024139 
	C1577.313965,277.836517 1578.162720,279.499695 1578.142822,283.058441 
	C1578.013184,306.205017 1578.076538,329.352692 1578.076660,353.000000 
z"/>
<path fill="#28D964" opacity="1.000000" stroke="none" 
	d="
M1063.026489,283.902161 
	C1051.102539,283.902374 1051.102417,283.902374 1051.102539,272.626495 
	C1051.102539,266.638641 1051.242554,260.646301 1051.050415,254.664642 
	C1050.937988,251.163544 1052.303711,250.001648 1055.728760,250.036636 
	C1068.368408,250.165741 1081.011108,250.162048 1093.650879,250.037094 
	C1097.203247,250.001984 1098.823853,251.134293 1098.747070,254.900650 
	C1098.580688,263.047394 1098.595215,271.201599 1098.739380,279.349182 
	C1098.801514,282.863953 1097.324341,283.990326 1093.958374,283.947479 
	C1083.813965,283.818390 1073.666870,283.901703 1063.026489,283.902161 
z"/>
<path fill="#15E242" opacity="1.000000" stroke="none" 
	d="
M1308.113525,399.134521 
	C1312.658936,399.092682 1316.823242,398.894287 1320.936401,399.264252 
	C1322.997681,399.449646 1325.138550,400.384277 1326.946167,401.473389 
	C1334.505981,406.028625 1337.507812,415.741058 1334.676758,425.826874 
	C1332.399536,433.939362 1326.310669,438.559479 1317.215942,438.637604 
	C1313.265381,438.671570 1309.104126,438.713654 1305.396729,437.580566 
	C1296.838013,434.964722 1292.745483,427.567719 1293.185913,417.032654 
	C1293.576050,407.700714 1298.308838,401.894409 1308.113525,399.134521 
z"/>
<path fill="#1AE347" opacity="1.000000" stroke="none" 
	d="
M1570.820312,218.382431 
	C1578.695068,218.392609 1578.697144,218.392609 1578.699585,225.708832 
	C1578.701782,232.183472 1578.584473,238.660904 1578.742676,245.131668 
	C1578.832397,248.805283 1577.386475,250.142349 1573.719604,249.992935 
	C1568.084351,249.763306 1562.430176,249.826416 1556.789307,249.968719 
	C1553.423828,250.053635 1551.949951,248.811172 1552.017700,245.326523 
	C1552.159424,238.024567 1552.205200,230.713882 1552.002197,223.414810 
	C1551.890137,219.382050 1553.655396,218.163620 1557.399658,218.337738 
	C1561.706665,218.538010 1566.030273,218.382965 1570.820312,218.382431 
z"/>
<path fill="#F6F4FC" opacity="1.000000" stroke="none" 
	d="
M457.548218,402.087433 
	C455.033600,392.164917 461.422577,386.565826 469.296509,385.569153 
	C478.030334,384.463654 487.057251,385.509979 495.939850,385.954010 
	C497.030243,386.008545 498.851868,388.087097 498.909210,389.295319 
	C499.168579,394.757111 499.019379,400.247101 498.815125,405.719391 
	C498.641602,410.369446 496.335358,413.035400 491.387970,413.179718 
	C485.587616,413.348938 479.760803,414.266388 474.005249,413.905487 
	C466.511536,413.435577 460.072632,410.622192 457.548218,402.087433 
z"/>
<path fill="#F6F9FC" opacity="1.000000" stroke="none" 
	d="
M1467.959229,311.027863 
	C1483.082642,326.226593 1488.346558,344.470062 1486.743652,365.107086 
	C1485.508179,381.011841 1480.792725,395.278381 1468.885376,406.702057 
	C1448.541016,426.220001 1412.727295,426.105530 1391.990845,406.804626 
	C1374.300171,390.338593 1370.688965,369.894928 1373.872925,347.420471 
	C1376.954468,325.669006 1388.393921,309.269379 1408.954468,301.269043 
	C1429.873047,293.129364 1450.130493,295.213257 1467.959229,311.027863 
z"/>
</svg>